<svg width="510" height="503" viewBox="0 0 510 503" fill="none" xmlns="http://www.w3.org/2000/svg">
<ellipse cx="253.5" cy="452.5" rx="253.5" ry="50.5" fill="#DCDBDE"/>
<g clip-path="url(#clip0_43_663)">
<path d="M371.084 270.678V402.446L393.144 438.366L394.823 441.099H481.865L483.624 270.678H371.084Z" fill="#E6E6E6"/>
<path opacity="0.1" d="M371.084 270.678V402.446L393.144 438.366L394.498 270.678H371.084Z" fill="black"/>
<path d="M160.953 267.164V398.932L138.893 434.853L137.214 437.584H50.1723L48.4136 267.164H160.953Z" fill="#E6E6E6"/>
<path opacity="0.1" d="M160.953 267.164V398.932L138.893 434.853L137.539 267.164H160.953Z" fill="black"/>
<path d="M510 264.529V272.435H36.9834V261.015L80.9439 238.175H471.315L510 264.529Z" fill="#E6E6E6"/>
<path opacity="0.1" d="M510 264.529V272.435H36.9834V261.015L510 264.529Z" fill="black"/>
<path d="M104.683 304.059H83.5816L74.7896 297.91H114.354L104.683 304.059Z" fill="#4E5E80"/>
<path d="M104.683 329.535H83.5816L74.7896 323.385H114.354L104.683 329.535Z" fill="#4E5E80"/>
<path d="M104.683 365.552H83.5816L74.7896 359.402H114.354L104.683 365.552Z" fill="#4E5E80"/>
<path d="M104.683 401.568H83.5816L74.7896 395.419H114.354L104.683 401.568Z" fill="#4E5E80"/>
<path d="M427.354 307.573H448.455L457.247 301.424H417.683L427.354 307.573Z" fill="#4E5E80"/>
<path d="M427.354 333.048H448.455L457.247 326.899H417.683L427.354 333.048Z" fill="#4E5E80"/>
<path d="M427.354 369.065H448.455L457.247 362.916H417.683L427.354 369.065Z" fill="#4E5E80"/>
<path d="M427.354 405.082H448.455L457.247 398.932H417.683L427.354 405.082Z" fill="#4E5E80"/>
<path d="M441.723 85.7983H264.081C263.199 85.7982 262.325 85.9717 261.51 86.309C260.695 86.6463 259.954 87.1408 259.33 87.7641C258.706 88.3874 258.212 89.1274 257.874 89.9419C257.536 90.7563 257.363 91.6292 257.363 92.5107V212.072C257.363 212.954 257.536 213.826 257.874 214.641C258.212 215.455 258.706 216.195 259.33 216.819C259.954 217.442 260.695 217.936 261.51 218.274C262.325 218.611 263.199 218.785 264.081 218.784H331.516L328.989 234.901C328.989 234.901 314.551 242.564 324.703 242.79C334.855 243.015 382.681 242.79 382.681 242.79C382.681 242.79 391.93 242.79 377.266 234.675L374.89 218.784H441.723C442.606 218.785 443.479 218.611 444.294 218.274C445.109 217.936 445.85 217.442 446.474 216.819C447.098 216.195 447.593 215.455 447.93 214.641C448.268 213.826 448.442 212.954 448.441 212.072V92.5107C448.442 91.6292 448.268 90.7563 447.93 89.9419C447.593 89.1274 447.098 88.3874 446.474 87.7641C445.85 87.1408 445.109 86.6463 444.294 86.309C443.479 85.9717 442.606 85.7982 441.723 85.7983Z" fill="#4E5E80"/>
<path d="M442.012 92.8984H263.792V192.525H442.012V92.8984Z" fill="#F2F2F2"/>
<path d="M352.902 90.8698C353.525 90.8698 354.03 90.3652 354.03 89.7428C354.03 89.1204 353.525 88.6158 352.902 88.6158C352.279 88.6158 351.774 89.1204 351.774 89.7428C351.774 90.3652 352.279 90.8698 352.902 90.8698Z" fill="#F2F2F2"/>
<path d="M352.903 213.938C355.27 213.938 357.189 212.021 357.189 209.656C357.189 207.291 355.27 205.373 352.903 205.373C350.535 205.373 348.616 207.291 348.616 209.656C348.616 212.021 350.535 213.938 352.903 213.938Z" fill="#F2F2F2"/>
<path d="M346.223 254.961V257.216H224.854V255.412L225.02 254.961L228.012 246.847H343.742L346.223 254.961Z" fill="#4E5E80"/>
<path d="M392.93 252.755C392.709 253.699 391.875 254.695 389.989 255.637C383.221 259.018 369.459 254.736 369.459 254.736C369.459 254.736 358.856 252.933 358.856 248.199C359.154 247.996 359.465 247.811 359.786 247.647C362.631 246.143 372.066 242.432 388.794 247.804C390.026 248.191 391.127 248.911 391.974 249.886C392.349 250.255 392.631 250.707 392.797 251.205C392.964 251.704 393.009 252.235 392.93 252.755Z" fill="#4E5E80"/>
<path opacity="0.1" d="M392.93 252.755C384.646 255.926 377.262 256.163 369.685 250.904C366.819 248.787 363.349 247.646 359.786 247.647C362.631 246.143 372.065 242.432 388.794 247.804C390.026 248.191 391.127 248.911 391.973 249.886C392.348 250.255 392.631 250.707 392.797 251.205C392.963 251.704 393.009 252.235 392.93 252.755Z" fill="#4E5E80"/>
<path d="M382.544 250.904C384.163 250.904 385.476 250.5 385.476 250.002C385.476 249.504 384.163 249.101 382.544 249.101C380.924 249.101 379.611 249.504 379.611 250.002C379.611 250.5 380.924 250.904 382.544 250.904Z" fill="#F2F2F2"/>
<path opacity="0.1" d="M346.223 254.961V257.216H224.854V255.412L225.02 254.961H346.223Z" fill="black"/>
<path d="M70.4836 0.000112237C69.2518 -0.100934 68.0184 0.174364 66.9467 0.789529C65.8945 1.5095 65.2313 2.77081 64.5543 3.94454C61.9661 8.48575 58.4621 12.4404 54.2643 15.558C51.2067 17.7959 47.3195 20.5864 47.8426 24.7127C48.1186 26.0753 48.6224 27.3818 49.333 28.5771C52.1536 34.2661 59.8507 38.6624 59.0936 45.154C61.8959 40.4666 58.1476 38.1488 60.9499 33.4614C62.2845 31.2291 64.6029 28.7093 66.6178 30.1111C67.2925 30.5805 67.7355 31.4224 68.4379 31.8343C70.1141 32.817 71.8973 30.9382 73.381 29.6075C78.4973 25.0185 85.7732 26.2207 92.14 27.6505C95.1457 28.3255 98.4471 29.2111 100.224 32.0814C102.56 35.8552 98.0044 39.9309 96.8534 44.1976C96.7594 44.5611 96.7549 44.942 96.8404 45.3077C96.9259 45.6733 97.0987 46.0128 97.3441 46.2972C97.5896 46.5816 97.9003 46.8023 98.2497 46.9405C98.5991 47.0788 98.9768 47.1304 99.3506 47.091C101.261 46.9027 103.524 46.7483 103.637 45.9108C106.041 45.9962 108.986 45.7243 110.015 43.2237C110.33 42.2343 110.497 41.2038 110.509 40.1657C110.887 35.9653 112.671 32.1332 113.853 28.1354C115.036 24.1376 115.549 19.4524 113.555 15.9079C112.843 14.7286 111.962 13.6594 110.941 12.7343C99.6212 1.7889 84.7379 -0.0161348 70.4836 0.000112237Z" fill="#00072D"/>
<path d="M61.5555 53.3533C61.5555 53.3533 64.0174 73.8515 54.9904 75.4914C45.9634 77.1312 63.1967 105.009 63.1967 105.009L104.229 109.928L94.3809 77.1312C94.3809 77.1312 87.8158 74.6714 91.919 58.2729C96.0222 41.8743 61.5555 53.3533 61.5555 53.3533Z" fill="#FFB8B8"/>
<path d="M36.5259 405.512L39.8087 450.609H57.0415L52.1182 405.512H36.5259Z" fill="#FFB8B8"/>
<path d="M162.904 320.24L165.365 357.957L184.241 349.758L176.854 318.6L162.904 320.24Z" fill="#FFB8B8"/>
<path d="M24.2163 233.328C24.2163 233.328 25.0369 280.883 29.9608 296.462C34.8846 312.041 34.064 312.861 33.2433 315.32C32.4227 317.78 31.6021 316.14 31.6021 320.24C31.6021 324.34 29.9608 389.114 31.6021 394.854C33.2433 400.593 26.6782 410.432 31.6021 411.252C36.5259 412.072 59.5037 411.252 60.3243 406.333C61.1449 401.413 53.7592 399.773 57.0418 396.493C60.3243 393.214 65.2481 325.98 65.2481 325.98L76.737 279.244L98.0735 254.646H143.208L157.159 308.761C157.159 308.761 151.415 324.34 155.518 324.34C159.621 324.34 184.24 329.259 184.24 311.221C184.24 293.182 176.034 239.887 174.393 238.247C172.751 236.607 175.213 230.868 172.751 228.408C170.289 225.948 141.567 208.73 130.899 205.45C120.231 202.17 105.265 198.267 105.265 198.267L24.2163 233.328Z" fill="#23304B"/>
<path d="M184.24 343.198C184.24 343.198 171.931 339.098 166.186 351.397C160.442 363.696 162.904 366.976 162.904 366.976C162.904 366.976 181.778 373.535 185.061 370.256C186.489 368.829 191.024 368.333 195.692 368.228C202.802 368.069 204.693 358.019 197.979 355.679C197.778 355.609 197.576 355.548 197.371 355.497C190.805 353.857 184.24 343.198 184.24 343.198Z" fill="#00072D"/>
<path d="M80.0195 66.8821C93.6162 66.8821 104.639 55.8693 104.639 42.2843C104.639 28.6992 93.6162 17.6864 80.0195 17.6864C66.4227 17.6864 55.4004 28.6992 55.4004 42.2843C55.4004 55.8693 66.4227 66.8821 80.0195 66.8821Z" fill="#FFB8B8"/>
<path d="M48.0149 85.7405C48.0149 85.7405 88.2261 93.9398 98.0737 80.8209C107.921 67.702 112.024 117.718 112.024 117.718L116.948 170.193L109.563 198.891C109.563 198.891 70.9927 230.048 58.6832 232.508C46.3737 234.967 27.499 236.607 27.499 236.607C27.499 236.607 33.2435 145.595 33.2435 143.955C33.2435 142.316 48.0149 85.7405 48.0149 85.7405Z" fill="#FF6D5A"/>
<path d="M60.244 70.363C60.244 70.363 51.2974 65.2423 48.8355 70.1618C46.3736 75.0814 23.3958 87.3803 20.9339 87.3803C18.472 87.3803 25.8577 155.434 22.5752 163.634C19.2926 171.833 3.70054 231.688 12.7275 236.607C21.7545 241.527 15.1894 231.688 24.2164 243.987C33.2434 256.286 77.5577 256.286 80.0196 251.366C82.4815 246.447 60.3244 209.55 64.4276 175.113C68.5307 140.676 75.0958 93.1198 69.3514 86.5604C63.6069 80.001 60.244 70.363 60.244 70.363Z" fill="#29354E"/>
<path d="M89.8672 75.9013L91.0103 71.971C91.0103 71.971 125.155 83.2807 126.796 90.66C128.437 98.0394 127.616 149.695 121.872 153.795C116.128 157.894 107.921 164.454 113.666 174.293C119.41 184.132 125.975 194.791 130.899 195.611C135.823 196.431 144.85 202.17 142.388 207.91C139.926 213.649 110.383 202.99 110.383 202.99C110.383 202.99 90.6878 188.232 91.5085 165.274C92.3291 142.316 89.8672 75.9013 89.8672 75.9013Z" fill="#29354E"/>
<path d="M118.589 172.653L98.8942 209.55C98.8942 209.55 70.172 239.067 86.5847 242.347C102.997 245.627 112.024 215.289 112.024 215.289L133.361 184.952L118.589 172.653Z" fill="#FFB8B8"/>
<path d="M71.6829 6.43607C70.6906 6.36261 69.6966 6.55523 68.8037 6.99403C67.9964 7.58313 67.3311 8.345 66.8562 9.22397C64.6674 12.5137 61.8141 15.3096 58.4797 17.4323C55.9907 19.0141 52.8264 20.9863 53.2522 23.9027C53.4834 24.8805 53.8948 25.8068 54.4654 26.6341C56.7694 30.6957 57.6867 35.3965 57.0783 40.0254L63.9221 30.0863C65.0085 28.5085 66.8958 26.7275 68.536 27.7184C69.0852 28.0501 69.4458 28.6452 70.0177 28.9363C71.3821 29.6309 72.8337 28.303 74.0416 27.3624C78.2065 24.1189 84.1293 24.9686 89.3121 25.9792C91.7589 26.4563 94.4464 27.0822 95.8928 29.1109C98.2965 32.4822 95.7866 37.3535 97.1894 41.2481C97.5821 40.9734 97.9156 40.6228 98.1701 40.2169C98.4247 39.811 98.5951 39.3583 98.6712 38.8854C100.628 38.9458 103.025 38.7536 103.864 36.9862C104.118 36.2935 104.254 35.5628 104.265 34.8249C104.573 31.856 106.026 29.1475 106.988 26.3219C107.95 23.4963 108.368 20.1848 106.745 17.6796C106.151 16.8307 105.434 16.0748 104.617 15.4365C95.4022 7.70037 83.2865 6.42459 71.6829 6.43607Z" fill="#00072D"/>
<path d="M118.589 87.3803L126.235 89.4081C126.235 89.4081 144.029 134.936 139.926 166.093C135.823 197.251 133.361 190.691 133.361 190.691C133.361 190.691 126.796 175.933 112.024 179.212L118.589 87.3803Z" fill="#29354E"/>
<path d="M37.663 444.649C35.6841 447.336 36.0808 451.177 34.3279 454.016C32.8084 456.477 29.9448 457.767 28.0442 459.948C27.4377 460.673 26.8971 461.45 26.4287 462.27C24.6656 465.221 23.2326 469.002 24.9689 471.969C26.3658 474.355 29.3018 475.288 31.9945 475.923C35.3979 476.727 38.934 477.37 42.3767 476.756C45.8194 476.142 49.184 474.036 50.4115 470.764C50.6527 469.941 50.9395 469.132 51.2706 468.342C53.1365 464.671 58.9894 464.632 60.8991 460.984C62.2355 458.431 61.007 455.345 59.779 452.739L56.0284 444.777C54.7838 442.135 49.7381 443.655 47.1077 443.022C43.6771 442.196 40.131 441.286 37.663 444.649Z" fill="#00072D"/>
<path d="M10.2656 189.051L44.7323 242.347C44.7323 242.347 66.0688 269.404 72.6339 257.106C79.199 244.807 49.6561 224.308 49.6561 224.308L27.499 183.312L10.2656 189.051Z" fill="#FFB8B8"/>
<path d="M27.4989 89.0202L20.9338 87.3803C20.9338 87.3803 7.80365 91.48 4.52111 108.698C1.23858 125.917 3.70048 194.791 7.80365 195.611C11.9068 196.431 28.0692 183.619 30.6563 186.335C33.2434 189.051 25.037 175.113 27.4989 167.733C29.9608 160.354 27.4989 89.0202 27.4989 89.0202Z" fill="#29354E"/>
<path d="M336.034 125.619H314.824V130.721H336.034V125.619Z" fill="#4E5E80"/>
<path d="M409.484 125.619H402.021V130.721H409.484V125.619Z" fill="#4E5E80"/>
<path d="M424.41 125.619H416.947V130.721H424.41V125.619Z" fill="#4E5E80"/>
<path d="M394.166 125.619H343.497V130.721H394.166V125.619Z" fill="#4E5E80"/>
<path d="M309.325 158.584H288.115V163.686H309.325V158.584Z" fill="#4E5E80"/>
<path d="M382.775 158.584H375.312V163.686H382.775V158.584Z" fill="#4E5E80"/>
<path d="M397.701 158.584H390.238V163.686H397.701V158.584Z" fill="#4E5E80"/>
<path d="M367.456 158.584H316.788V163.686H367.456V158.584Z" fill="#4E5E80"/>
<path d="M396.915 137H375.705V142.102H396.915V137Z" fill="#4E5E80"/>
<path d="M425.588 137H404.378V142.102H425.588V137Z" fill="#4E5E80"/>
<path d="M295.578 137H288.115V142.102H295.578V137Z" fill="#4E5E80"/>
<path d="M310.503 137H303.041V142.102H310.503V137Z" fill="#4E5E80"/>
<path d="M368.635 137H317.966V142.102H368.635V137Z" fill="#4E5E80"/>
<path d="M352.924 147.988H331.713V153.09H352.924V147.988Z" fill="#4E5E80"/>
<path d="M324.251 147.988H303.041V153.09H324.251V147.988Z" fill="#4E5E80"/>
<path d="M295.578 147.988H288.115V153.09H295.578V147.988Z" fill="#4E5E80"/>
<path d="M425.588 147.988H418.125V153.09H425.588V147.988Z" fill="#4E5E80"/>
<path d="M410.662 147.988H359.994V153.09H410.662V147.988Z" fill="#4E5E80"/>
</g>
<defs>
<clipPath id="clip0_43_663">
<rect width="507" height="477" fill="white" transform="translate(3)"/>
</clipPath>
</defs>
</svg>
