<svg width="198" height="16" viewBox="0 0 198 16" fill="none" xmlns="http://www.w3.org/2000/svg">
<path d="M9.70018 14.1L0.000175774 9.7V7.16L9.70018 2.74V5.38L2.14018 8.4L9.70018 11.44V14.1ZM26.9527 1.18V9.52C26.9527 11.1067 26.506 12.3467 25.6127 13.24C24.7193 14.1333 23.4527 14.58 21.8127 14.58C20.6393 14.58 19.686 14.3667 18.9527 13.94C18.2193 13.5133 17.7127 12.9133 17.4327 12.14C17.1527 11.3667 17.0993 10.48 17.2727 9.48L19.9527 9C19.7927 10.1733 19.866 11.02 20.1727 11.54C20.4793 12.06 21.046 12.32 21.8727 12.32C22.7393 12.32 23.3393 12.0533 23.6727 11.52C24.0193 10.9867 24.1927 10.1933 24.1927 9.14V1.18H26.9527ZM34.4477 14.58C33.3943 14.58 32.4743 14.3733 31.6877 13.96C30.9143 13.5467 30.3143 12.9533 29.8877 12.18C29.461 11.4067 29.2477 10.4733 29.2477 9.38C29.2477 8.28667 29.461 7.35333 29.8877 6.58C30.3143 5.80667 30.9077 5.21333 31.6677 4.8C32.441 4.38667 33.321 4.18 34.3077 4.18C35.321 4.18 36.181 4.38667 36.8877 4.8C37.5943 5.2 38.1343 5.75333 38.5077 6.46C38.881 7.15333 39.0677 7.94667 39.0677 8.84C39.0677 9.10667 39.061 9.36 39.0477 9.6C39.0343 9.84 39.0143 10.0533 38.9877 10.24H31.0077V8.34H37.7877L36.4677 8.82C36.4677 7.98 36.2743 7.33333 35.8877 6.88C35.5143 6.42667 34.981 6.2 34.2877 6.2C33.781 6.2 33.341 6.32 32.9677 6.56C32.6077 6.8 32.3343 7.16 32.1477 7.64C31.961 8.10667 31.8677 8.7 31.8677 9.42C31.8677 10.1267 31.9677 10.7133 32.1677 11.18C32.381 11.6333 32.6743 11.9733 33.0477 12.2C33.4343 12.4267 33.8943 12.54 34.4277 12.54C35.0143 12.54 35.4877 12.4267 35.8477 12.2C36.2077 11.9733 36.4877 11.66 36.6877 11.26L38.8677 12.1C38.6543 12.62 38.3277 13.0667 37.8877 13.44C37.461 13.8133 36.9477 14.1 36.3477 14.3C35.761 14.4867 35.1277 14.58 34.4477 14.58ZM41.3897 14.38V4.38H43.8497L44.0097 7.38L43.6697 7.06C43.8297 6.40667 44.083 5.86667 44.4297 5.44C44.7764 5.01333 45.1964 4.7 45.6897 4.5C46.1964 4.28667 46.7497 4.18 47.3497 4.18C48.043 4.18 48.6564 4.31333 49.1897 4.58C49.7364 4.84667 50.163 5.25333 50.4697 5.8C50.7897 6.33333 50.9497 7.00667 50.9497 7.82V14.38H48.2097V8.6C48.2097 7.74667 48.043 7.16 47.7097 6.84C47.3764 6.50667 46.943 6.34 46.4097 6.34C46.0364 6.34 45.6697 6.43333 45.3097 6.62C44.963 6.79333 44.6764 7.08 44.4497 7.48C44.2364 7.88 44.1297 8.41333 44.1297 9.08V14.38H41.3897ZM55.1525 2.94C54.5792 2.94 54.1525 2.82 53.8725 2.58C53.5925 2.32667 53.4525 1.96 53.4525 1.48C53.4525 0.986667 53.5925 0.62 53.8725 0.38C54.1525 0.126667 54.5792 2.38419e-07 55.1525 2.38419e-07C55.7259 2.38419e-07 56.1525 0.126667 56.4325 0.38C56.7125 0.62 56.8525 0.986667 56.8525 1.48C56.8525 1.96 56.7125 2.32667 56.4325 2.58C56.1525 2.82 55.7259 2.94 55.1525 2.94ZM56.5125 4.38V14.38H53.7725V4.38H56.5125ZM62.1171 2.38419e-07V11.3C62.1171 11.7667 62.1971 12.0933 62.3571 12.28C62.5171 12.4667 62.7837 12.56 63.1571 12.56C63.3837 12.56 63.5704 12.5467 63.7171 12.52C63.8637 12.48 64.0504 12.4267 64.2771 12.36L64.0371 14.16C63.8104 14.2933 63.5237 14.3933 63.1771 14.46C62.8437 14.54 62.5104 14.58 62.1771 14.58C61.2037 14.58 60.4904 14.3467 60.0371 13.88C59.5971 13.4 59.3771 12.64 59.3771 11.6V2.38419e-07H62.1171Z" fill="#4E5E80"/>
<path d="M82.661 14.38H79.801L78.701 11.16H73.641L72.541 14.38H69.721L74.541 1.18H77.841L82.661 14.38ZM74.261 9.12H78.081L76.161 3.36L74.261 9.12ZM84.3389 14.38V4.38H86.7989L86.8989 6.18C87.2323 5.51333 87.6856 5.01333 88.2589 4.68C88.8456 4.34667 89.4923 4.18 90.1989 4.18C90.9189 4.18 91.5656 4.34667 92.1389 4.68C92.7256 5.01333 93.1656 5.50667 93.4589 6.16C93.6723 5.72 93.9589 5.35333 94.3189 5.06C94.6789 4.76667 95.0789 4.54667 95.5189 4.4C95.9589 4.25333 96.4056 4.18 96.8589 4.18C97.5123 4.18 98.1056 4.31333 98.6389 4.58C99.1856 4.84667 99.6189 5.24667 99.9389 5.78C100.259 6.31333 100.419 6.99333 100.419 7.82V14.38H97.6789V8.36C97.6789 7.62667 97.5189 7.10667 97.1989 6.8C96.8789 6.49333 96.4656 6.34 95.9589 6.34C95.5589 6.34 95.1856 6.44 94.8389 6.64C94.5056 6.84 94.2389 7.14 94.0389 7.54C93.8523 7.92667 93.7589 8.41333 93.7589 9V14.38H91.0189V8.36C91.0189 7.62667 90.8523 7.10667 90.5189 6.8C90.1989 6.49333 89.7856 6.34 89.2789 6.34C88.9323 6.34 88.5856 6.43333 88.2389 6.62C87.9056 6.80667 87.6256 7.1 87.3989 7.5C87.1856 7.9 87.0789 8.42667 87.0789 9.08V14.38H84.3389ZM109.125 14.58C108.512 14.58 107.952 14.4533 107.445 14.2C106.952 13.9333 106.539 13.5733 106.205 13.12C105.885 12.6533 105.665 12.1333 105.545 11.56L105.825 11.2L105.665 14.38H103.245V2.38419e-07H105.985V7.2L105.725 6.78C105.939 6.03333 106.345 5.41333 106.945 4.92C107.545 4.42667 108.299 4.18 109.205 4.18C109.992 4.18 110.705 4.38667 111.345 4.8C111.985 5.21333 112.485 5.80667 112.845 6.58C113.219 7.35333 113.405 8.29333 113.405 9.4C113.405 10.48 113.219 11.4067 112.845 12.18C112.485 12.9533 111.979 13.5467 111.325 13.96C110.685 14.3733 109.952 14.58 109.125 14.58ZM108.305 12.48C109.039 12.48 109.612 12.22 110.025 11.7C110.452 11.1667 110.665 10.3933 110.665 9.38C110.665 8.36667 110.459 7.6 110.045 7.08C109.632 6.54667 109.059 6.28 108.325 6.28C107.845 6.28 107.432 6.40667 107.085 6.66C106.739 6.91333 106.465 7.27333 106.265 7.74C106.079 8.20667 105.985 8.76 105.985 9.4C105.985 10.0533 106.079 10.6133 106.265 11.08C106.465 11.5333 106.739 11.88 107.085 12.12C107.445 12.36 107.852 12.48 108.305 12.48ZM121.426 8C121.426 7.42667 121.259 6.98 120.926 6.66C120.606 6.34 120.179 6.18 119.646 6.18C119.152 6.18 118.719 6.30667 118.346 6.56C117.972 6.81333 117.699 7.23333 117.526 7.82L115.186 7.1C115.412 6.22 115.906 5.51333 116.666 4.98C117.439 4.44667 118.472 4.18 119.766 4.18C120.646 4.18 121.412 4.32 122.066 4.6C122.719 4.86667 123.226 5.27333 123.586 5.82C123.959 6.36667 124.146 7.05333 124.146 7.88V11.94C124.146 12.4467 124.386 12.7 124.866 12.7C125.092 12.7 125.306 12.6667 125.506 12.6L125.346 14.3C124.999 14.4733 124.566 14.56 124.046 14.56C123.579 14.56 123.159 14.48 122.786 14.32C122.412 14.16 122.119 13.92 121.906 13.6C121.692 13.2667 121.586 12.8533 121.586 12.36V12.28L122.066 12.2C121.986 12.7067 121.766 13.14 121.406 13.5C121.046 13.8467 120.606 14.1133 120.086 14.3C119.579 14.4867 119.052 14.58 118.506 14.58C117.826 14.58 117.239 14.48 116.746 14.28C116.252 14.0667 115.872 13.76 115.606 13.36C115.339 12.96 115.206 12.4667 115.206 11.88C115.206 11.1333 115.446 10.5267 115.926 10.06C116.406 9.58 117.092 9.25333 117.986 9.08L121.746 8.32L121.726 10.02L119.326 10.5C118.872 10.5933 118.526 10.72 118.286 10.88C118.059 11.0267 117.946 11.2733 117.946 11.62C117.946 11.9533 118.066 12.2067 118.306 12.38C118.559 12.5533 118.859 12.64 119.206 12.64C119.486 12.64 119.759 12.6067 120.026 12.54C120.292 12.4733 120.532 12.3667 120.746 12.22C120.959 12.0733 121.126 11.8733 121.246 11.62C121.366 11.3667 121.426 11.06 121.426 10.7V8ZM139.798 4.38H142.718L139.518 14.38H136.358L134.178 7.58L132.078 14.38H128.918L125.718 4.38H128.638L130.638 12.04L132.858 4.38H135.578L137.818 12.04L139.798 4.38ZM149.961 8C149.961 7.42667 149.794 6.98 149.461 6.66C149.141 6.34 148.714 6.18 148.181 6.18C147.687 6.18 147.254 6.30667 146.881 6.56C146.507 6.81333 146.234 7.23333 146.061 7.82L143.721 7.1C143.947 6.22 144.441 5.51333 145.201 4.98C145.974 4.44667 147.007 4.18 148.301 4.18C149.181 4.18 149.947 4.32 150.601 4.6C151.254 4.86667 151.761 5.27333 152.121 5.82C152.494 6.36667 152.681 7.05333 152.681 7.88V11.94C152.681 12.4467 152.921 12.7 153.401 12.7C153.627 12.7 153.841 12.6667 154.041 12.6L153.881 14.3C153.534 14.4733 153.101 14.56 152.581 14.56C152.114 14.56 151.694 14.48 151.321 14.32C150.947 14.16 150.654 13.92 150.441 13.6C150.227 13.2667 150.121 12.8533 150.121 12.36V12.28L150.601 12.2C150.521 12.7067 150.301 13.14 149.941 13.5C149.581 13.8467 149.141 14.1133 148.621 14.3C148.114 14.4867 147.587 14.58 147.041 14.58C146.361 14.58 145.774 14.48 145.281 14.28C144.787 14.0667 144.407 13.76 144.141 13.36C143.874 12.96 143.741 12.4667 143.741 11.88C143.741 11.1333 143.981 10.5267 144.461 10.06C144.941 9.58 145.627 9.25333 146.521 9.08L150.281 8.32L150.261 10.02L147.861 10.5C147.407 10.5933 147.061 10.72 146.821 10.88C146.594 11.0267 146.481 11.2733 146.481 11.62C146.481 11.9533 146.601 12.2067 146.841 12.38C147.094 12.5533 147.394 12.64 147.741 12.64C148.021 12.64 148.294 12.6067 148.561 12.54C148.827 12.4733 149.067 12.3667 149.281 12.22C149.494 12.0733 149.661 11.8733 149.781 11.62C149.901 11.3667 149.961 11.06 149.961 10.7V8ZM158.445 2.38419e-07V11.3C158.445 11.7667 158.525 12.0933 158.685 12.28C158.845 12.4667 159.112 12.56 159.485 12.56C159.712 12.56 159.899 12.5467 160.045 12.52C160.192 12.48 160.379 12.4267 160.605 12.36L160.365 14.16C160.139 14.2933 159.852 14.3933 159.505 14.46C159.172 14.54 158.839 14.58 158.505 14.58C157.532 14.58 156.819 14.3467 156.365 13.88C155.925 13.4 155.705 12.64 155.705 11.6V2.38419e-07H158.445ZM167.93 8C167.93 7.42667 167.763 6.98 167.43 6.66C167.11 6.34 166.683 6.18 166.15 6.18C165.656 6.18 165.223 6.30667 164.85 6.56C164.476 6.81333 164.203 7.23333 164.03 7.82L161.69 7.1C161.916 6.22 162.41 5.51333 163.17 4.98C163.943 4.44667 164.976 4.18 166.27 4.18C167.15 4.18 167.916 4.32 168.57 4.6C169.223 4.86667 169.73 5.27333 170.09 5.82C170.463 6.36667 170.65 7.05333 170.65 7.88V11.94C170.65 12.4467 170.89 12.7 171.37 12.7C171.596 12.7 171.81 12.6667 172.01 12.6L171.85 14.3C171.503 14.4733 171.07 14.56 170.55 14.56C170.083 14.56 169.663 14.48 169.29 14.32C168.916 14.16 168.623 13.92 168.41 13.6C168.196 13.2667 168.09 12.8533 168.09 12.36V12.28L168.57 12.2C168.49 12.7067 168.27 13.14 167.91 13.5C167.55 13.8467 167.11 14.1133 166.59 14.3C166.083 14.4867 165.556 14.58 165.01 14.58C164.33 14.58 163.743 14.48 163.25 14.28C162.756 14.0667 162.376 13.76 162.11 13.36C161.843 12.96 161.71 12.4667 161.71 11.88C161.71 11.1333 161.95 10.5267 162.43 10.06C162.91 9.58 163.596 9.25333 164.49 9.08L168.25 8.32L168.23 10.02L165.83 10.5C165.376 10.5933 165.03 10.72 164.79 10.88C164.563 11.0267 164.45 11.2733 164.45 11.62C164.45 11.9533 164.57 12.2067 164.81 12.38C165.063 12.5533 165.363 12.64 165.71 12.64C165.99 12.64 166.263 12.6067 166.53 12.54C166.796 12.4733 167.036 12.3667 167.25 12.22C167.463 12.0733 167.63 11.8733 167.75 11.62C167.87 11.3667 167.93 11.06 167.93 10.7V8ZM186.834 2.38419e-07L181.034 15.78H178.494L184.274 2.38419e-07H186.834ZM188.275 2.74L197.975 7.16V9.7L188.275 14.1V11.48L195.835 8.46L188.275 5.4V2.74Z" fill="#FF6D5A"/>
</svg>
